<?xml version="1.0" encoding="UTF-8" standalone="no"?>
<svg
   xmlns:dc="http://purl.org/dc/elements/1.1/"
   xmlns:cc="http://creativecommons.org/ns#"
   xmlns:rdf="http://www.w3.org/1999/02/22-rdf-syntax-ns#"
   xmlns:svg="http://www.w3.org/2000/svg"
   xmlns="http://www.w3.org/2000/svg"
   xmlns:sodipodi="http://sodipodi.sourceforge.net/DTD/sodipodi-0.dtd"
   xmlns:inkscape="http://www.inkscape.org/namespaces/inkscape"
   width="515.307"
   height="265.173"
   viewBox="0 0 136.342 70.16"
   version="1.1"
   id="svg8"
   sodipodi:docname="nosefart.svg"
   inkscape:version="1.0.2 (e86c870879, 2021-01-15)">
  <metadata
     id="metadata76">
    <rdf:RDF>
      <cc:Work
         rdf:about="">
        <dc:format>image/svg+xml</dc:format>
        <dc:type
           rdf:resource="http://purl.org/dc/dcmitype/StillImage" />
      </cc:Work>
    </rdf:RDF>
  </metadata>
  <sodipodi:namedview
     pagecolor="#ffffff"
     bordercolor="#666666"
     borderopacity="1"
     objecttolerance="10"
     gridtolerance="10"
     guidetolerance="10"
     inkscape:pageopacity="0"
     inkscape:pageshadow="2"
     inkscape:window-width="1508"
     inkscape:window-height="793"
     id="namedview74"
     showgrid="false"
     inkscape:zoom="1.8099382"
     inkscape:cx="259.43295"
     inkscape:cy="202.07394"
     inkscape:window-x="1507"
     inkscape:window-y="219"
     inkscape:window-maximized="0"
     inkscape:current-layer="g1202" />
  <defs
     id="defs2">
    <path
       id="rect1046"
       d="M122.692 89.672h81.564v24.382h-81.564z" />
    <path
       id="rect1645"
       d="M129.658 89.382h69.663v32.8h-69.663z" />
  </defs>
  <g
     id="layer1"
     transform="translate(-64.506 -69.685)">
    <g
       id="g1250"
       transform="translate(32.669 65.294) scale(.26458)">
      <g
         id="g3057"
         transform="translate(113.155 7.442) scale(1.6429)">
        <path
           id="path3789"
           style="fill:#323232;stroke:#000"
           d="m45.106 1021.7-3.253 2.623-4.79 18.581-2.545 5.783 3.338-3.21.546 3.21 2.49-3.1 1.249 3.681 2.292-2.615 1.737 2.034 2.103-2.744 2.219 3.47 1.41-3.36 2.037 2.634 1.84-2.303 2.19 2.74 1.891-3.4 1.847 4.416 2.052-2.788 1.686 2.788 1.971-4.16 1.913 3.579 2.439-3.074 1.591 3.22 2.007-3.966 1.877 2.948 1.782-2.044 2.102 2.044c.64-.068.733-4.524 1.942 0l1.658-1.94 2.227 1.94 1.065-2.983 2.819 2.983 1.167-1.94 2.447.66 2.212 1.28-2.395-4.334-6.313-19.75-3.046-2.583z"
           transform="translate(0 -924.36)" />
        <path
           id="use3019"
           style="fill:#debc85;stroke:#000"
           d="M80.563 999.2c4.066 3.56 7.62 7.603 8.753 13.923-1.284 5.668-3.767 8.876-8.162 10.837-4.237 1.444-5.793.442-8.664.115z"
           transform="translate(0 -924.36)" />
        <path
           id="path3017"
           style="fill:#debc85;stroke:#000"
           d="M50.385 999.2c-4.066 3.56-7.62 7.603-8.753 13.923 1.284 5.668 3.766 8.876 8.162 10.837 4.237 1.444 5.793.442 8.664.115z"
           transform="translate(0 -924.36)" />
        <path
           id="path3011"
           style="fill:#debc85;stroke:#000"
           d="M54.998 989.06c.132 3.605-9.287 12.443-7.127 28.898 4.788 8.571 7.285 8.95 17.554 9.58 12.532-1.016 13.867-3.263 16.956-9.58 3.418-17.547-6.024-24.992-7.585-28.898l-4.022-21.02-11.932-.516z"
           transform="translate(0 -924.36)" />
        <path
           id="path3795"
           style="fill:#323232;stroke:#000;stroke-width:1px"
           d="m10.727 939 2.134-4.098c2.066-.61 1.049.53 2.976.103.964-.213 1.45-1.789 2.796-2.374 1.345-.585 3.161.305 4.066.169.905-.136 2.378-1.516 3.257-1.618.88-.102 1.746.589 2.602.517.856-.071 1.701-.905 2.537-.95.835-.044 1.952 1.283 2.77 1.262.817-.021 1.335-1.39 2.138-1.39.802-.001 3.053.978 3.842.995 1.21-.746.946-1.176 2.056-1.184.772.04 2.704 1.637 3.47.518.435-.633 1.531.193 2.295.243.763.05 2.594 1.946 3.358 1.996.763.05.848-.872 1.614-.825l2.846 4.098c.797 4.986 2.163 7.726 1.574 14.56l-2.609 1.912c-13.539-1.246-27.079-2.155-40.618 1.682l-4.269-2.459c-.884-3.976.025-8.169 1.165-13.158z"
           transform="translate(0 -924.36)" />
        <path
           id="path2985"
           style="fill:#323232;stroke:#000"
           d="M6.01 956.46c-1.389 2.246-1.415 4.486-.633 6.721l3.753-.037c1.728 2.666-.45 35.224 25.322 34.704 22.645.397 24.58-18.371 25.363-24.315 1.204-3.961 3.348-4.196 5.32-4.19v-9.654c-3.541-.755-5.983-1.047-8.223-2.485-7.125-6.799-26.46-9.762-44.319-1.67z"
           transform="translate(0 -924.36)" />
        <path
           id="use3799"
           style="fill:#323232;stroke:#000;stroke-width:1px"
           d="m120.2 939.27-2.134-4.098c-2.066-.61-1.049.53-2.976.103-.964-.213-1.45-1.789-2.796-2.374-1.345-.585-3.161.305-4.066.169-.905-.136-2.378-1.516-3.257-1.618-.88-.102-1.746.589-2.602.517-.856-.071-1.701-.905-2.537-.95-.835-.044-1.952 1.283-2.77 1.262-.817-.021-1.335-1.39-2.138-1.39-.802-.001-3.053.978-3.842.995-1.21-.746-.946-1.176-2.056-1.184-.772.04-2.704 1.637-3.47.518-.435-.633-1.531.193-2.295.243-.763.05-2.594 1.946-3.358 1.996-.763.05-.848-.872-1.614-.825l-2.846 4.098c-.797 4.986-2.163 7.726-1.574 14.56l2.609 1.912c13.539-1.246 27.079-2.155 40.618 1.682l4.268-2.459c.885-3.976-.024-8.169-1.164-13.158z"
           transform="translate(0 -924.36)" />
        <path
           id="use2987"
           style="fill:#323232;stroke:#000"
           d="M124.45 956.46c1.389 2.246 1.415 4.486.633 6.721l-3.754-.037c-1.727 2.666.45 35.224-25.322 34.704-22.645.397-24.58-18.371-25.363-24.315-1.203-3.961-3.347-4.196-5.318-4.19v-9.654c3.54-.755 5.982-1.047 8.222-2.485 7.125-6.799 26.46-9.762 44.319-1.67z"
           transform="translate(0 -924.36)" />
        <path
           id="path3008"
           style="fill:#fff;stroke:#000;stroke-linecap:round"
           d="M54.937 973.97c-1.811 10.962-7.76 19.338-18.992 19.338-11.231 0-17.216-8.465-19.656-19.297-1.45-6.438-6.248-18.507 19.498-18.659 21.821-.128 20.432 10.854 19.15 18.618z"
           transform="translate(0 -924.36)" />
        <path
           id="use3013"
           style="fill:#fff;stroke:#000;stroke-linecap:round"
           d="M76.752 973.97c1.811 10.962 7.76 19.338 18.992 19.338 11.231 0 17.216-8.465 19.656-19.297 1.45-6.438 6.248-18.507-19.498-18.659-21.821-.128-20.432 10.854-19.15 18.618z"
           transform="translate(0 -924.36)" />
        <path
           id="path3802"
           d="M11.748 45.49c.045 4.303 1.16 11.088 3.21 14.822 1.791 4.205 7.16 9.725 9.426 9.63-3.152-2.585-6.29-5.526-8.675-10.176-1.974-3.962-2.655-9.153-3.961-14.275z"
           style="fill:#eeeeec" />
        <path
           id="path3804"
           style="fill:#eeeeec"
           d="M95.941 70.188c7.711.4 11.201-1.379 14.315-4.284 3.635-2.77 5.453-9.916 5.338-12.328-1.607 3.863-2.533 7.683-6.454 11.14-3.354 2.887-5.277 4.72-13.2 5.471z" />
        <path
           id="path3806"
           d="M58.054 34.986c2.065 1.102 3.352 2.47 7.534 2.511 5.065-.424 5.462-2.039 7.438-3.38-2.393 1.012-4.35 2.173-7.438 2.028-1.872.272-4.976-.518-7.534-1.159z"
           style="fill:#eeeeec" />
        <path
           id="path3808"
           d="m69.209 46.879 4.274 24.459c1.484 3.31 4.625 6.073 5.225 10.475.347 2.975 1.416 8.21-2.497 13.5-3.371 3.632-14.032 7.512-23.642 4.026 1.269 2.263 11.54 5.427 22.775 1.614 4.014-2.262 7.794-4.409 7.18-17.887-.934-6.493-3.282-12.565-7.613-16.434-1.886-3.788-3.615-12.11-5.702-19.753z"
           style="fill:#d09e50" />
        <path
           id="path3810"
           d="M79.571 99.488c2.953.41 8.536-5.284 9.103-10.126-1.215.737-3.061 4.68-6.472 5.892-.734 1.069-1.498 2.667-2.631 4.234z"
           style="fill:#d09e50" />
        <path
           id="path3812"
           d="M51.159 99.449c-2.308-.418-4.064-2.098-5.67-3.347.68.324 2.078.774 3.416.205z"
           style="fill:#d09e50" />
        <path
           id="path3814"
           d="M54.866 74.679c-1.62 5.11-3.496 10.264-2.125 14.876 3.964 2.002 5.521.793 8.114.966-7.217-2.26-5.776-6.61-5.989-15.842z"
           style="fill:#eeeeec" />
        <path
           id="path3816"
           style="fill:#eeeeec"
           d="M44.82 83.18c-1.038 1.934-1.812 5.688-1.397 7.636.481.567.706 1.067 1.967 1.034-1.006-1.303-1.334-2.778-.57-8.67z" />
      </g>
    </g>
  </g>
  <g
     id="layer2"
     transform="translate(-64.506 -69.685)">
    <g
       id="g1202"
       transform="rotate(-172.763 65.262 74.921) scale(.20711)"
       style="stroke:none;stroke-width:1.27748;stroke-miterlimit:4;stroke-dasharray:none;stroke-opacity:1">
      <path
         d="m159.2 170.6-59.4-54.5s-5.5-26.5-11.7-29.5c-6.2-2.9-23.7-2.2-23.7-2.2S47.5 77.9 37 92.6s-6.3 28.6-6.3 28.6-19.2 2.9-20.2 17.6c-1 14.7 14.5 27.5 14.5 27.5s-8.5 11.3.3 17c8.8 5.8 20.6 2.5 34.5 2 13.9-.5 14.7-13.9 14.7-13.9l87.4 23.4s-55-18.5-50-28.5c4.9-9.9 47.3 4.3 47.3 4.3z"
         id="path1186"
         style="stroke:none;stroke-width:1.27748;stroke-miterlimit:4;stroke-dasharray:none;stroke-opacity:1;fill:#8bb779" />
      <path
         d="M99.8 116.1s3.6-22.6-11.7-29.5c-15.3-6.9-29.7 5.9-29.7 5.9s28.6-6.3 31.1.5 10.3 23.1 10.3 23.1z"
         id="path1188"
         style="stroke:none;stroke-width:1.27748;stroke-miterlimit:4;stroke-dasharray:none;stroke-opacity:1;fill:#c3db67" />
      <path
         class="st14"
         d="M70.9 88.2S62.2 74 49.1 81.5c-13.2 7.5-27.9 22.8-22.3 34.1 5.6 11.3 18.7 17.2 18.7 17.2s-8.1-7.7-7.4-18c.7-10.3 17.7-29.5 23.4-27.7 5.8 1.7 9.4 1.1 9.4 1.1z"
         id="path1190"
         style="stroke:none;stroke-width:1.27748;stroke-miterlimit:4;stroke-dasharray:none;stroke-opacity:1" />
      <path
         class="st14"
         d="M30.7 121.2s-18.4 4.1-20.7 12c-2.3 7.9 4.7 29.4 15 33.1 10.3 3.7 22.4-1.8 21.2-1.7-1.2.1-24.1-4.5-24.6-12.5-.5-7.9 13.2-26.5 13.2-26.5z"
         id="path1192"
         style="stroke:none;stroke-width:1.27748;stroke-miterlimit:4;stroke-dasharray:none;stroke-opacity:1" />
      <path
         class="st14"
         d="M89.6 119.1c.8.5 12.3 11.6 7.5 16.9-4.8 5.3-17.1 3.7-17.1 3.7s9.4.4 10.4-7.1c1.1-7.4-.8-13.5-.8-13.5z"
         id="path1194"
         style="stroke:none;stroke-width:1.27748;stroke-miterlimit:4;stroke-dasharray:none;stroke-opacity:1" />
      <path
         class="st14"
         d="M74.2 173.2s.4-13.9-3.7-20.5c-4.1-6.6-5.1-8.5-5.1-8.5s17.8 18 17.8 23.8v5.8l-14.5 8.6z"
         id="path1196"
         style="stroke:none;stroke-width:1.27748;stroke-miterlimit:4;stroke-dasharray:none;stroke-opacity:1" />
      <path
         class="st14"
         d="M25 166.3s-8.4 11.8-1.5 15.6c6.9 3.8 19.7 6.8 32.4 3.6 12.7-3.2 18.2-12.3 18.2-12.3s-20.1 12-31.3 8.3c-11.2-3.7-17.9-5.2-17.9-5.2z"
         id="path1198"
         style="stroke:none;stroke-width:1.27748;stroke-miterlimit:4;stroke-dasharray:none;stroke-opacity:1" />
      <path
         class="st14"
         d="M134.5 157.7 109.4 140s-.3 16.7-.9 16c-.6-.7-18.6-1.1-18.6-1.1l22.9 19.2s-13.4-6.5-5.9-12.2c7.5-5.7 34.4-.4 34.4-.4z"
         id="path1200"
         style="stroke:none;stroke-width:1.27748;stroke-miterlimit:4;stroke-dasharray:none;stroke-opacity:1" />
    </g>
    <g
       aria-label="nosefart"
       id="text1052"
       style="font-style:normal;font-weight:400;font-size:19.7556px;line-height:1.25;font-family:sans-serif;fill:#000;fill-opacity:1;stroke:none;stroke-width:.264583">
      <path
         d="M121.612 104.54q-.375 0-.672-.276-.276-.277-.276-.632V95.61q0-.395.296-.672.297-.276.692-.276.375 0 .632.276.276.277.276.672v1.501q.554-1.185 1.403-1.797.85-.633 1.857-.633 1.106 0 1.758.514.652.514.949 1.7.296 1.165.296 3.239l-.02 3.457q0 .376-.257.672-.256.277-.652.277-.375 0-.671-.277-.277-.296-.277-.652v-3.28q0-1.54-.138-2.37-.138-.83-.415-1.126-.277-.316-.75-.316-.593 0-1.186.513-.593.494-1.106 1.423-.455.81-.632 1.58-.178.77-.178 1.857v1.66q0 .434-.257.711-.237.277-.672.277z"
         style="font-style:normal;font-variant:normal;font-weight:700;font-stretch:normal;font-size:19.7556px;font-family:'Comic Neue';-inkscape-font-specification:'Comic Neue Bold';stroke-width:.264583"
         id="path887" />
      <path
         d="M134.829 104.54q-1.126 0-2.075-.612-.928-.612-1.462-1.66-.533-1.066-.533-2.31 0-1.403.632-2.609.632-1.224 1.7-1.936 1.066-.73 2.29-.73 1.127 0 2.055.632.949.632 1.482 1.679.553 1.047.553 2.252 0 1.422-.632 2.647-.632 1.205-1.719 1.936-1.067.712-2.291.712zm0-1.777q.691 0 1.323-.475.632-.474 1.008-1.264.375-.79.375-1.68 0-.75-.296-1.402-.297-.672-.81-1.067-.514-.415-1.126-.415-.692 0-1.304.494-.593.475-.948 1.284-.356.79-.356 1.7 0 .888.296 1.52.316.633.79.969.494.336 1.048.336z"
         style="font-style:normal;font-variant:normal;font-weight:700;font-stretch:normal;font-size:19.7556px;font-family:'Comic Neue';-inkscape-font-specification:'Comic Neue Bold';stroke-width:.264583"
         id="path889" />
      <path
         d="M144.45 104.54q-1.146 0-1.996-.493-.83-.514-1.284-1.166-.434-.672-.434-1.086 0-.396.276-.652.277-.277.652-.277.336 0 .553.178.237.178.336.474.217.612.711.968t1.225.356q.77 0 1.205-.376.435-.375.435-.85 0-.454-.376-.71-.355-.277-1.461-.613-1.62-.494-2.332-1.166-.71-.69-.71-1.797 0-1.166.928-1.897.928-.75 2.588-.75 1.54 0 2.39.671.87.672.87 1.798 0 .612-.257.948-.257.316-.731.316-.415 0-.672-.257-.257-.256-.257-.553 0-.098.04-.237.059-.158.059-.237 0-.355-.356-.573-.336-.217-1.047-.217-.889 0-1.323.257-.415.257-.415.691 0 .455.434.75.435.278 1.561.633 1.64.514 2.272 1.126.652.613.652 1.719 0 .75-.455 1.462-.434.691-1.244 1.126-.79.435-1.837.435z"
         style="font-style:normal;font-variant:normal;font-weight:700;font-stretch:normal;font-size:19.7556px;font-family:'Comic Neue';-inkscape-font-specification:'Comic Neue Bold';stroke-width:.264583"
         id="path891" />
      <path
         d="M154.268 104.54q-1.403 0-2.529-.592-1.106-.613-1.738-1.719-.632-1.126-.632-2.647 0-1.245.553-2.37.573-1.147 1.58-1.838 1.028-.692 2.331-.692 1.206 0 2.055.494.87.475 1.304 1.146.435.672.435 1.205 0 .257-.158.494-.159.237-.455.415l-5.294 3.042q.276.613.968.949.71.336 1.58.336 1.146 0 1.956-.85.316-.316.652-.316.395 0 .652.257.276.257.276.632 0 .316-.237.593-.553.612-1.481 1.047-.91.415-1.818.415zm1.403-7.25q-.237-.415-.672-.612-.435-.218-1.027-.218-1.126 0-1.897.771-.75.77-.869 1.896-.04.297-.04.712z"
         style="font-style:normal;font-variant:normal;font-weight:700;font-stretch:normal;font-size:19.7556px;font-family:'Comic Neue';-inkscape-font-specification:'Comic Neue Bold';stroke-width:.264583"
         id="path893" />
      <path
         d="M161.005 104.54q-.376 0-.672-.276-.277-.277-.277-.632V96.48h-.908q-.356 0-.632-.276-.277-.277-.277-.633 0-.375.277-.651.276-.277.612-.277h.948q.08-1.877 1.008-2.628.948-.77 3.022-.77.554 0 .85.198.296.197.296.71 0 .396-.257.672-.237.257-.671.257-.89 0-1.363.119-.455.099-.692.434-.237.336-.296 1.008l2.015.02q.316 0 .593.276.296.277.296.632 0 .356-.277.633-.257.276-.612.276h-2.035v7.152q0 .355-.296.632-.277.277-.652.277z"
         style="fill:#c9001b;fill-opacity:1"
         id="path895" />
      <path
         d="M171.97 104.738q-.396 0-.653-.217-.237-.218-.237-.573v-.277q-.81.87-2.252.87-1.087 0-1.956-.534-.87-.533-1.363-1.501-.494-.988-.494-2.233 0-1.383.593-2.667.592-1.304 1.66-2.114 1.086-.81 2.488-.81.91 0 1.64.257.731.237 1.521.593v8.218q0 .395-.276.692-.277.296-.672.296zm-3.004-2.035q.573 0 1.107-.237.553-.237.908-.573l.06-5.156q-.573-.237-1.245-.237-.85 0-1.501.533-.652.514-1.008 1.383-.356.85-.356 1.818 0 1.205.534 1.837.533.632 1.501.632z"
         style="fill:#c9001b;fill-opacity:1"
         id="path897" />
      <path
         d="M176.651 104.54q-.375 0-.672-.276-.296-.277-.296-.632V95.63q0-.395.277-.672.296-.277.691-.277.395 0 .672.277.296.277.296.672v.592q.968-1.58 2.647-1.58 1.008 0 1.443.553.454.553.454 1.324v.592q0 .396-.277.672-.256.257-.652.257-.474 0-.71-.277-.218-.276-.218-.671v-.257q0-.316-.435-.316-.355 0-.83.355-.454.356-.75.751-.415.514-.553 1.027-.119.514-.119 1.225l-.02 3.754q0 .355-.296.632t-.652.277z"
         style="fill:#c9001b;fill-opacity:1"
         id="path899" />
      <path
         d="M185.363 104.56q-.375 0-.671-.276-.277-.277-.277-.652v-7.053h-1.56q-.396 0-.672-.277-.277-.296-.277-.671 0-.435.296-.692.297-.276.692-.276h1.521v-2.114q0-.375.277-.672.276-.296.671-.296.415 0 .672.296.277.277.277.672v2.114h1.679q.395 0 .672.276.276.277.276.692 0 .375-.276.671-.277.277-.672.277h-1.68v7.053q0 .375-.276.652-.277.276-.672.276z"
         style="fill:#c9001b;fill-opacity:1"
         id="path901" />
    </g>
    <g
       aria-label="NES Sound Format (.NSF) Player"
       id="text1060"
       style="font-style:normal;font-weight:400;font-size:10.5015px;line-height:1.25;font-family:sans-serif;fill:#000;fill-opacity:1;stroke:none;stroke-width:.262537">
      <path
         d="M120.611 111.807q-.05 0-.078-.034-.028-.04-.017-.09l.762-3.578q.006-.05.044-.079.04-.033.084-.033.079 0 .112.078l1.552 3.276.694-3.248q.012-.056.045-.084.04-.028.084-.028.05 0 .079.04.033.033.022.083l-.767 3.585q-.028.112-.124.112-.084 0-.123-.09l-1.546-3.265-.689 3.243q-.01.044-.05.078-.034.034-.084.034z"
         style="font-style:italic;font-variant:normal;font-weight:300;font-stretch:normal;font-size:5.60079px;font-family:'Comic Neue';-inkscape-font-specification:'Comic Neue Light Italic';stroke-width:.262537"
         id="path904" />
      <path
         d="M124.51 111.773q-.046 0-.074-.034-.028-.039-.016-.084l.756-3.523q.006-.044.045-.078.044-.034.084-.034h2.464q.095 0 .095.101-.006.05-.05.09-.045.04-.107.04h-2.335l-.308 1.467h2.06q.04 0 .062.022.028.022.028.062 0 .056-.039.1-.039.04-.095.04h-2.067l-.341 1.601h2.318q.045 0 .073.028.028.028.028.073 0 .05-.045.09-.039.039-.095.039z"
         style="font-style:italic;font-variant:normal;font-weight:300;font-stretch:normal;font-size:5.60079px;font-family:'Comic Neue';-inkscape-font-specification:'Comic Neue Light Italic';stroke-width:.262537"
         id="path906" />
      <path
         d="M128.687 111.807q-.29 0-.565-.107-.27-.112-.437-.297-.168-.19-.168-.42 0-.061.039-.106.045-.045.106-.045.101 0 .107.118.011.196.157.347.145.146.358.224.219.073.443.073.319 0 .604-.129.292-.129.465-.353.18-.23.18-.504 0-.454-.835-.7-1.002-.291-1.002-.89 0-.297.196-.533.196-.235.532-.364.341-.134.756-.134.448 0 .722.168.275.168.275.47 0 .09-.034.152-.028.061-.1.061-.046 0-.074-.022-.022-.023-.022-.056l.006-.09q0-.213-.218-.347-.213-.134-.61-.134-.365 0-.64.1-.268.101-.414.28-.145.18-.145.41 0 .246.218.42.224.173.7.319.448.134.683.352.241.219.241.499 0 .347-.218.633-.213.28-.566.442-.347.163-.74.163z"
         style="font-style:italic;font-variant:normal;font-weight:300;font-stretch:normal;font-size:5.60079px;font-family:'Comic Neue';-inkscape-font-specification:'Comic Neue Light Italic';stroke-width:.262537"
         id="path908" />
      <path
         d="M133.51 111.807q-.292 0-.566-.107-.269-.112-.437-.297-.168-.19-.168-.42 0-.061.04-.106.044-.045.106-.045.1 0 .106.118.011.196.157.347.146.146.358.224.219.073.443.073.32 0 .605-.129.291-.129.465-.353.179-.23.179-.504 0-.454-.835-.7-1.002-.291-1.002-.89 0-.297.196-.533.196-.235.532-.364.342-.134.756-.134.448 0 .722.168.275.168.275.47 0 .09-.034.152-.028.061-.1.061-.045 0-.073-.022-.023-.023-.023-.056l.006-.09q0-.213-.218-.347-.213-.134-.61-.134-.365 0-.64.1-.268.101-.414.28-.145.18-.145.41 0 .246.218.42.224.173.7.319.448.134.684.352.24.219.24.499 0 .347-.218.633-.213.28-.566.442-.347.163-.739.163z"
         style="font-style:italic;font-variant:normal;font-weight:300;font-stretch:normal;font-size:5.60079px;font-family:'Comic Neue';-inkscape-font-specification:'Comic Neue Light Italic';stroke-width:.262537"
         id="path910" />
      <path
         d="M136.495 111.823q-.403 0-.644-.274-.235-.28-.235-.711 0-.432.235-.863t.616-.706q.386-.28.795-.28.263 0 .465.135.202.129.308.358.112.224.112.504 0 .432-.24.863-.236.426-.617.7-.38.274-.795.274zm.05-.196q.336 0 .656-.24.319-.247.515-.622.201-.381.201-.75 0-.37-.19-.589-.185-.224-.51-.224-.336 0-.655.247-.314.24-.515.616-.196.37-.196.74 0 .369.185.598.184.224.51.224z"
         style="font-style:italic;font-variant:normal;font-weight:300;font-stretch:normal;font-size:5.60079px;font-family:'Comic Neue';-inkscape-font-specification:'Comic Neue Light Italic';stroke-width:.262537"
         id="path912" />
      <path
         d="M139.34 111.807q-.314 0-.47-.157-.157-.163-.157-.515 0-.337.134-.93.135-.6.297-1.048.05-.15.146-.15.09 0 .09.083 0 .045-.012.067-.196.538-.32 1.093-.122.554-.122.834 0 .538.448.538.263 0 .504-.09.246-.095.409-.218.263-.19.308-.443l.38-1.764q.006-.04.045-.067.045-.034.09-.034t.067.034q.028.028.022.067l-.548 2.576q-.012.056-.05.09-.034.034-.09.034-.056 0-.079-.04-.022-.039-.011-.1l.078-.348q-.173.202-.504.348-.33.14-.655.14z"
         style="font-style:italic;font-variant:normal;font-weight:300;font-stretch:normal;font-size:5.60079px;font-family:'Comic Neue';-inkscape-font-specification:'Comic Neue Light Italic';stroke-width:.262537"
         id="path914" />
      <path
         d="M141.776 111.807q-.044 0-.072-.028-.028-.028-.017-.073l.549-2.593q.01-.045.05-.073.04-.034.084-.034.05 0 .073.034.028.028.017.073l-.247 1.181q.146-.347.398-.638.258-.297.554-.47.297-.174.572-.174.29 0 .42.162.129.157.129.504 0 .381-.174 1.21-.056.263-.062.28l-.05.235-.062.286q-.01.05-.05.084-.034.034-.078.034-.045 0-.068-.034-.022-.034-.016-.078l.078-.376q.05-.274.078-.397.096-.437.14-.723.045-.285.045-.481 0-.258-.095-.376-.09-.117-.308-.117-.252 0-.521.179-.263.18-.52.52-.214.275-.376.622-.157.342-.23.661l-.106.476q-.011.05-.05.09-.034.034-.085.034z"
         style="font-style:italic;font-variant:normal;font-weight:300;font-stretch:normal;font-size:5.60079px;font-family:'Comic Neue';-inkscape-font-specification:'Comic Neue Light Italic';stroke-width:.262537"
         id="path916" />
      <path
         d="M145.686 111.807q-.342 0-.56-.23-.213-.23-.213-.65 0-.481.196-.918.202-.443.56-.717.358-.275.8-.275.225 0 .432.068.207.061.37.162l.297-1.266q.006-.045.05-.078.05-.04.095-.04t.073.04q.028.04.017.084l-.874 3.69q-.017.062-.061.096-.04.034-.09.034-.05 0-.073-.034-.017-.04-.006-.1l.09-.387q-.224.23-.527.375-.297.146-.577.146zm.084-.213q.218 0 .47-.129t.437-.308q.185-.18.219-.325l.319-1.36q-.426-.247-.784-.247-.376 0-.672.246-.292.24-.454.633-.163.386-.163.806 0 .33.163.51.162.174.465.174z"
         style="font-style:italic;font-variant:normal;font-weight:300;font-stretch:normal;font-size:5.60079px;font-family:'Comic Neue';-inkscape-font-specification:'Comic Neue Light Italic';stroke-width:.262537"
         id="path918" />
      <path
         d="M149.982 111.812q-.05 0-.079-.039-.022-.04-.011-.09l.756-3.54q.006-.05.045-.083.045-.04.09-.04h2.458q.095 0 .095.101-.006.05-.05.09-.04.04-.09.04h-2.346l-.314 1.472h1.831q.045 0 .068.028.028.023.028.067-.006.056-.05.096-.04.033-.09.033h-1.832l-.37 1.748q-.005.044-.05.078-.045.04-.09.04z"
         style="font-style:italic;font-variant:normal;font-weight:300;font-stretch:normal;font-size:5.60079px;font-family:'Comic Neue';-inkscape-font-specification:'Comic Neue Light Italic';stroke-width:.262537"
         id="path920" />
      <path
         d="M153.824 111.823q-.404 0-.644-.274-.236-.28-.236-.711 0-.432.236-.863.235-.431.616-.706.386-.28.795-.28.263 0 .465.135.201.129.308.358.112.224.112.504 0 .432-.24.863-.236.426-.617.7-.38.274-.795.274zm.05-.196q.336 0 .655-.24.32-.247.516-.622.201-.381.201-.75 0-.37-.19-.589-.185-.224-.51-.224-.336 0-.655.247-.314.24-.515.616-.196.37-.196.74 0 .369.184.598.185.224.51.224z"
         style="font-style:italic;font-variant:normal;font-weight:300;font-stretch:normal;font-size:5.60079px;font-family:'Comic Neue';-inkscape-font-specification:'Comic Neue Light Italic';stroke-width:.262537"
         id="path922" />
      <path
         d="M157.828 108.995q.342 0 .342.297 0 .117-.045.297-.011.056-.05.09-.034.027-.079.027-.056 0-.078-.033-.023-.034-.011-.079.039-.157.039-.23 0-.072-.045-.111-.045-.04-.168-.04-.207 0-.437.152-.224.145-.425.364-.152.15-.258.33-.1.174-.135.33l-.28 1.317q-.01.045-.05.073-.04.028-.084.028-.045 0-.073-.034-.028-.028-.017-.067l.55-2.588q.005-.039.044-.073.045-.033.09-.033.05 0 .078.033.028.028.017.073l-.146.678q.224-.32.577-.56.353-.241.644-.241z"
         style="font-style:italic;font-variant:normal;font-weight:300;font-stretch:normal;font-size:5.60079px;font-family:'Comic Neue';-inkscape-font-specification:'Comic Neue Light Italic';stroke-width:.262537"
         id="path924" />
      <path
         d="M158.36 111.807q-.045 0-.073-.034-.022-.028-.01-.073l.543-2.576q.006-.045.044-.079.045-.033.09-.033.05 0 .073.033.028.034.017.079l-.18.874q.292-.42.684-.7.392-.286.705-.286.236 0 .387.14.151.134.151.454 0 .084-.006.134.151-.23.364-.392.213-.168.426-.252.213-.084.37-.084.593 0 .593.605 0 .19-.045.386l-.358 1.697q-.011.045-.05.073-.04.034-.085.034-.05 0-.078-.034-.022-.028-.011-.073l.358-1.714q.045-.212.045-.347 0-.218-.106-.32-.101-.1-.314-.1-.185 0-.448.146-.263.145-.482.403-.218.258-.291.582l-.28 1.35q-.006.04-.05.073-.045.034-.09.034t-.073-.034q-.028-.028-.017-.073l.359-1.714q.045-.224.045-.352 0-.415-.37-.415-.213 0-.493.19-.274.185-.493.415-.23.246-.336.426-.106.173-.162.442l-.213 1.008q-.011.045-.05.073-.04.034-.09.034z"
         style="font-style:italic;font-variant:normal;font-weight:300;font-stretch:normal;font-size:5.60079px;font-family:'Comic Neue';-inkscape-font-specification:'Comic Neue Light Italic';stroke-width:.262537"
         id="path926" />
      <path
         d="M163.91 111.807q-.375 0-.599-.236-.224-.24-.224-.633 0-.448.241-.896.247-.453.639-.739.397-.291.834-.291.23 0 .431.073.208.067.348.145l-.527 2.481q-.01.056-.05.09-.04.034-.09.034-.05 0-.078-.034-.028-.034-.017-.095l.062-.241q-.196.134-.47.24-.27.102-.5.102zm.04-.219q.235 0 .504-.117.274-.118.465-.247l.414-1.848q-.09-.05-.257-.095-.163-.045-.303-.045-.375 0-.711.257-.336.253-.538.645-.201.386-.201.761 0 .336.173.516.174.173.454.173z"
         style="font-style:italic;font-variant:normal;font-weight:300;font-stretch:normal;font-size:5.60079px;font-family:'Comic Neue';-inkscape-font-specification:'Comic Neue Light Italic';stroke-width:.262537"
         id="path928" />
      <path
         d="M166.285 111.812q-.044 0-.072-.033-.023-.034-.012-.079l.527-2.492h-.734q-.039 0-.067-.023-.022-.022-.022-.056 0-.061.044-.09.045-.033.107-.033h.717l.19-.88q.006-.044.05-.077.045-.04.085-.04.05 0 .072.034.028.034.017.084l-.19.88h.733q.05 0 .073.027.023.028.017.079-.006.039-.045.067-.039.028-.095.028h-.728l-.527 2.498q-.006.039-.05.073-.045.033-.09.033z"
         style="font-style:italic;font-variant:normal;font-weight:300;font-stretch:normal;font-size:5.60079px;font-family:'Comic Neue';-inkscape-font-specification:'Comic Neue Light Italic';stroke-width:.262537"
         id="path930" />
      <path
         d="M170.29 112.434q-.067 0-.106-.073-.18-.28-.348-.722-.168-.448-.168-1.07 0-.61.219-1.21.224-.6.599-1.109.375-.51.84-.88.1-.078.135-.078.039 0 .061.034.028.028.028.067 0 .05-.067.107-.683.548-1.137 1.344-.448.795-.448 1.686 0 .459.1.829.107.364.135.414l.252.442q.04.056.04.09 0 .05-.045.09-.045.039-.09.039z"
         style="font-style:italic;font-variant:normal;font-weight:300;font-stretch:normal;font-size:5.60079px;font-family:'Comic Neue';-inkscape-font-specification:'Comic Neue Light Italic';stroke-width:.262537"
         id="path932" />
      <path
         d="M171.175 111.773q-.05 0-.079-.034-.028-.039-.028-.09 0-.094.073-.178.073-.084.157-.084.05 0 .079.039.028.033.028.084 0 .09-.073.179-.073.084-.157.084z"
         style="font-style:italic;font-variant:normal;font-weight:300;font-stretch:normal;font-size:5.60079px;font-family:'Comic Neue';-inkscape-font-specification:'Comic Neue Light Italic';stroke-width:.262537"
         id="path934" />
      <path
         d="M172.284 111.807q-.05 0-.079-.034-.028-.04-.016-.09l.761-3.578q.006-.05.045-.079.04-.033.084-.033.079 0 .112.078l1.552 3.276.694-3.248q.011-.056.045-.084.04-.028.084-.028.05 0 .078.04.034.033.023.083l-.768 3.585q-.028.112-.123.112-.084 0-.123-.09l-1.546-3.265-.689 3.243q-.011.044-.05.078-.034.034-.084.034z"
         style="font-style:italic;font-variant:normal;font-weight:300;font-stretch:normal;font-size:5.60079px;font-family:'Comic Neue';-inkscape-font-specification:'Comic Neue Light Italic';stroke-width:.262537"
         id="path936" />
      <path
         d="M176.927 111.807q-.291 0-.566-.107-.269-.112-.437-.297-.168-.19-.168-.42 0-.061.04-.106.044-.045.106-.045.1 0 .106.118.012.196.157.347.146.146.359.224.218.073.442.073.32 0 .605-.129.291-.129.465-.353.18-.23.18-.504 0-.454-.835-.7-1.003-.291-1.003-.89 0-.297.196-.533.196-.235.532-.364.342-.134.756-.134.448 0 .723.168.274.168.274.47 0 .09-.033.152-.028.061-.101.061-.045 0-.073-.022-.022-.023-.022-.056l.006-.09q0-.213-.219-.347-.213-.134-.61-.134-.364 0-.639.1-.269.101-.414.28-.146.18-.146.41 0 .246.218.42.225.173.7.319.449.134.684.352.24.219.24.499 0 .347-.218.633-.213.28-.565.442-.348.163-.74.163z"
         style="font-style:italic;font-variant:normal;font-weight:300;font-stretch:normal;font-size:5.60079px;font-family:'Comic Neue';-inkscape-font-specification:'Comic Neue Light Italic';stroke-width:.262537"
         id="path938" />
      <path
         d="M179.195 111.812q-.05 0-.078-.039-.023-.04-.011-.09l.756-3.54q.006-.05.045-.083.044-.04.09-.04h2.458q.095 0 .095.101-.006.05-.05.09-.04.04-.09.04h-2.347l-.313 1.472h1.831q.045 0 .067.028.028.023.028.067-.006.056-.05.096-.04.033-.09.033h-1.831l-.37 1.748q-.006.044-.05.078-.045.04-.09.04z"
         style="font-style:italic;font-variant:normal;font-weight:300;font-stretch:normal;font-size:5.60079px;font-family:'Comic Neue';-inkscape-font-specification:'Comic Neue Light Italic';stroke-width:.262537"
         id="path940" />
      <path
         d="M181.99 112.434q-.04 0-.062-.028-.028-.028-.028-.062 0-.056.101-.15 1.132-1.054 1.423-2.465.05-.23.05-.499 0-.487-.151-.963-.151-.482-.431-.773-.023-.028-.023-.084.006-.045.045-.078.04-.04.084-.04.045 0 .095.062.297.375.454.846.157.47.157.969 0 .269-.05.549-.157.879-.611 1.54-.448.66-.919 1.114-.067.062-.134.062z"
         style="font-style:italic;font-variant:normal;font-weight:300;font-stretch:normal;font-size:5.60079px;font-family:'Comic Neue';-inkscape-font-specification:'Comic Neue Light Italic';stroke-width:.262537"
         id="path942" />
      <path
         d="M186.123 111.807q-.044 0-.072-.034-.023-.034-.017-.084l.75-3.517q.017-.084.045-.118.034-.04.118-.05.09-.017.28-.017.935 0 1.406.246.476.241.476.69 0 .503-.398.845-.398.342-.991.504-.594.162-1.193.162l-.264 1.26q-.006.045-.05.079-.045.034-.09.034zm.454-1.585q.504 0 1.036-.135.538-.14.902-.42.364-.286.364-.7 0-.37-.409-.566-.409-.201-1.193-.201-.129 0-.28.016z"
         style="font-style:italic;font-variant:normal;font-weight:300;font-stretch:normal;font-size:5.60079px;font-family:'Comic Neue';-inkscape-font-specification:'Comic Neue Light Italic';stroke-width:.262537"
         id="path944" />
      <path
         d="M189.254 111.807q-.039 0-.067-.028-.028-.028-.022-.073l.784-3.691q.006-.045.045-.079.044-.033.09-.033.044 0 .066.033.023.034.017.079l-.784 3.696q-.011.04-.05.068-.034.028-.079.028z"
         style="font-style:italic;font-variant:normal;font-weight:300;font-stretch:normal;font-size:5.60079px;font-family:'Comic Neue';-inkscape-font-specification:'Comic Neue Light Italic';stroke-width:.262537"
         id="path946" />
      <path
         d="M191.214 111.807q-.375 0-.599-.236-.224-.24-.224-.633 0-.448.241-.896.246-.453.638-.739.398-.291.835-.291.23 0 .431.073.207.067.348.145l-.527 2.481q-.011.056-.05.09-.04.034-.09.034-.05 0-.078-.034-.028-.034-.017-.095l.061-.241q-.196.134-.47.24-.269.102-.498.102zm.04-.219q.235 0 .504-.117.274-.118.465-.247l.414-1.848q-.09-.05-.258-.095-.162-.045-.302-.045-.375 0-.711.257-.336.253-.538.645-.202.386-.202.761 0 .336.174.516.174.173.454.173z"
         style="font-style:italic;font-variant:normal;font-weight:300;font-stretch:normal;font-size:5.60079px;font-family:'Comic Neue';-inkscape-font-specification:'Comic Neue Light Italic';stroke-width:.262537"
         id="path948" />
      <path
         d="M193.18 112.95q-.044 0-.067-.029-.028-.028-.028-.061 0-.04.04-.101l.85-1.26-.643-2.28q0-.011-.012-.034-.006-.022-.006-.044 0-.056.04-.096.044-.039.09-.039.078 0 .094.079l.605 2.145 1.445-2.145q.05-.084.135-.084.09 0 .09.09 0 .038-.034.094l-2.481 3.691q-.05.073-.118.073z"
         style="font-style:italic;font-variant:normal;font-weight:300;font-stretch:normal;font-size:5.60079px;font-family:'Comic Neue';-inkscape-font-specification:'Comic Neue Light Italic';stroke-width:.262537"
         id="path950" />
      <path
         d="M196.871 111.807q-.341 0-.593-.135-.247-.134-.381-.364-.13-.235-.13-.532 0-.431.22-.84.223-.415.593-.667.37-.257.79-.257.297 0 .498.106.202.107.291.258.096.151.096.291 0 .084-.028.123-.028.04-.107.084l-2.1 1.064q.022.309.274.488.258.179.605.179.219 0 .465-.09.247-.095.392-.218.084-.067.129-.067.034 0 .056.028.028.022.028.056 0 .056-.084.123-.196.157-.47.263-.275.107-.544.107zm1.17-2.09q-.027-.24-.206-.37-.174-.128-.504-.128-.28 0-.538.151-.258.146-.443.392-.168.224-.263.476t-.095.499z"
         style="font-style:italic;font-variant:normal;font-weight:300;font-stretch:normal;font-size:5.60079px;font-family:'Comic Neue';-inkscape-font-specification:'Comic Neue Light Italic';stroke-width:.262537"
         id="path952" />
      <path
         d="M200.506 108.995q.342 0 .342.297 0 .117-.045.297-.011.056-.05.09-.034.027-.079.027-.056 0-.078-.033-.023-.034-.011-.079.039-.157.039-.23 0-.072-.045-.111-.045-.04-.168-.04-.207 0-.437.152-.224.145-.426.364-.15.15-.257.33-.101.174-.135.33l-.28 1.317q-.01.045-.05.073-.04.028-.084.028-.045 0-.073-.034-.028-.028-.017-.067l.55-2.588q.005-.039.044-.073.045-.033.09-.033.05 0 .078.033.028.028.017.073l-.146.678q.224-.32.577-.56.353-.241.644-.241z"
         style="font-style:italic;font-variant:normal;font-weight:300;font-stretch:normal;font-size:5.60079px;font-family:'Comic Neue';-inkscape-font-specification:'Comic Neue Light Italic';stroke-width:.262537"
         id="path954" />
    </g>
  </g>
  <style
     type="text/css"
     id="style1041">.st14{fill:#c3db67}</style>
</svg>
